# xmcd
#
# Track frame offsets: 
#        150
#        10533
#        25702
#        37221
#        51257
#        64672
#        79218
#        93440
#        107483
#        120508
#        134256
#        146858
#        158686
#        171640
#        183834
#        198279
#        211188
#        222816
#        234774
#        247421
#        261463
#        275538
#        288504
#        304471
#        318550
#
# Disc length: 4421 seconds
#
# Revision: 1
# Processed by: cddbd v1.5.2PL0 Copyright (c) Steve Scherf et al.
# Submitted via: ExactAudioCopy v0.99pb5
#
DISCID=74114319
DTITLE=Various Artist - Ain't Times Hard CD4
DYEAR=2008
DGENRE=Blues
TTITLE0=Guitar Slim and Jelly Belly - Keep Straight Blues
TTITLE1=Terry and Mcghee - Red Cross Store Blues
TTITLE2=Guitar Slim and Jelly Belly - Working Man Blues
TTITLE3=Cousin Joe - Post-War Future Blues
TTITLE4=Jim Wynn - Shipyard Woman
TTITLE5=Roosevelt Sykes - Living In A Different World
TTITLE6=Ivory Joe Hunter - Reconversion Blues
TTITLE7=Roosevelt Sykes - Sunny Road
TTITLE8=Eddie Vinson - Bonus Pay
TTITLE9=Eddie Vinson - Luxury Tax Blues
TTITLE10=Smokey Hogg - Unemployment Blues
TTITLE11=Smokey Hogg - Hard Times
TTITLE12=Floyd Jones - Stockyard Blues
TTITLE13=Ivory Joe Hunter - High Cost Low Pay Blues
TTITLE14=Willie 'Long Time' Smith - Homeless Blues
TTITLE15=Jack Mcvea - Inflation Blues
TTITLE16=L.C. Williams - Strike Blues
TTITLE17=John Lee Hooker - Strike Blues
TTITLE18=Big Mama Thornton - Cotton Picking Blues
TTITLE19=Floyd Jones - Ain't Times Hard
TTITLE20=John Brim - Tough Times
TTITLE21=Clarence 'Gatemouth' Brown - Depression Blues
TTITLE22=Jimmy Mccracklin - The Panic's On
TTITLE23=J.B. Hutto - Things Are So Slow
TTITLE24=J.B. Lenoir - Eisenhower Blues
EXTD=
EXTT0=
EXTT1=
EXTT2=
EXTT3=
EXTT4=
EXTT5=
EXTT6=
EXTT7=
EXTT8=
EXTT9=
EXTT10=
EXTT11=
EXTT12=
EXTT13=
EXTT14=
EXTT15=
EXTT16=
EXTT17=
EXTT18=
EXTT19=
EXTT20=
EXTT21=
EXTT22=
EXTT23=
EXTT24=
PLAYORDER=
